<?xml version="1.0" encoding="UTF-8"?>
<svg xmlns="http://www.w3.org/2000/svg" version="1.1" viewBox="0 0 1000 1000">
  <defs>
    <style>
      .cls-1 {
        fill: #fff2dc;
      }

      .cls-2 {
        fill: #fa3310;
      }

      .cls-3 {
        fill: #f91212;
      }
    </style>
  </defs>
  <!-- Generator: Adobe Illustrator 28.6.0, SVG Export Plug-In . SVG Version: 1.2.0 Build 709)  -->
  <g>
    <g id="Layer_1">
      <g>
        <g>
          <path class="cls-2" d="M891.18,114.8c-50.61-49.35-116.94-75.73-186.79-74.2-95.59,2.08-150.61,58.19-204.74,121.83-54.39-63.42-109.62-119.3-205.22-120.99-69.88-1.24-136.1,25.41-186.5,74.97C52.3,171.14,20.42,248.8,20.48,329.46c.02,42.74,9.06,86.24,26.83,129.14,1.28,3.11,2.6,6.25,3.94,9.25,1.54,3.53,3.26,7.21,5,10.8.81,1.77,1.72,3.57,2.55,5.26,2.25,4.6,4.73,9.38,7.4,14.28l2.88,5.24c2.53,4.53,5.15,9.05,7.86,13.52l1.89,3.04c12.65,20.59,27.32,40.98,43.61,60.57,4.09,4.93,7.87,9.37,11.5,13.44,17.01,19.29,36.75,39.29,62.02,62.92,10.26,9.58,20.61,19.08,30.26,27.88l20.74,18.86c8.57,7.88,16.35,15.1,23.78,22.06,6.24,5.82,12.42,11.73,18.59,17.64,56.15,53.7,186.02,189.01,211.45,215.56.18.18.35.37.53.55.18-.18.35-.37.53-.55,25.32-26.66,154.63-162.5,210.55-216.44,6.15-5.93,12.3-11.87,18.52-17.71,7.4-6.99,15.15-14.24,23.68-22.16l20.69-18.95c9.59-8.84,19.9-18.38,30.12-28,25.17-23.74,44.82-43.82,61.76-63.18,3.63-4.09,7.37-8.55,11.44-13.49,16.23-19.66,30.8-40.11,43.39-60.75l1.86-3.05c2.69-4.48,5.29-9,7.8-13.55l2.86-5.25c2.64-4.92,5.11-9.7,7.34-14.31.83-1.69,1.73-3.49,2.53-5.27,1.75-3.6,3.43-7.29,4.96-10.82,1.33-3.01,2.66-6.15,3.91-9.26,17.59-42.98,26.45-86.51,26.29-129.25-.28-80.66-32.48-158.19-88.34-212.68Z"/>
          <path d="M961.29,209.18c-15.36-36.95-37.79-70.57-66.25-98.34-51.7-50.43-119.4-77.34-190.76-75.78-94.96,2.07-151.44,56.85-204.63,118.88-53.45-61.82-110.17-116.35-205.1-118.02-71.27-1.24-138.99,25.92-190.48,76.55C47.37,168.23,14.89,247.33,14.95,329.46c.03,43.49,9.19,87.65,27.24,131.23,1.51,3.69,2.79,6.69,3.99,9.37,1.47,3.35,3.18,7.05,5.03,10.89.73,1.59,1.53,3.19,2.29,4.74l.32.64c2.17,4.44,4.63,9.18,7.53,14.53l2.89,5.25c2.6,4.66,5.28,9.26,7.99,13.74l1.88,3.03c.14.23.29.46.43.69,12.73,20.62,27.4,40.98,43.64,60.52,4.49,5.4,8.2,9.73,11.61,13.56,2.17,2.46,4.4,4.93,6.66,7.42,15.54,17.1,33.47,35.07,55.73,55.89,8.85,8.27,18.48,17.14,30.3,27.94l20.72,18.84c8.28,7.6,16.03,14.8,23.75,22.02,6.14,5.72,12.33,11.65,18.3,17.38l.25.22c16.84,16.09,40.16,39.41,65.31,64.9,3.15,3.21,6.36,6.46,9.57,9.72,56.78,57.78,119.57,123.2,136.47,140.86l.15.17c.12.14.25.26.37.39,1.04,1.04,2.45,1.62,3.91,1.62h.01c1.47,0,2.88-.59,3.91-1.63.12-.12.23-.25.36-.39l.15-.15s.07-.07.1-.1c18.69-19.7,94.13-98.96,154.86-160.82,8.17-8.31,16.06-16.31,23.51-23.8,12.07-12.12,22.97-22.93,32.01-31.64,6.01-5.81,12.22-11.8,18.47-17.68,7.55-7.13,15.29-14.36,23.62-22.1l6.3-5.76,14.4-13.19c1.04-.95,2.09-1.92,3.15-2.9,8.22-7.6,17.6-16.28,27.01-25.14,25.42-23.97,45.16-44.16,62.09-63.53,3.25-3.65,6.7-7.73,11.58-13.64,6.41-7.77,12.59-15.7,18.51-23.75,9.08-12.32,17.56-24.91,25.34-37.65l1.87-3.08c.23-.39.47-.79.7-1.17,2.42-4.05,4.84-8.27,7.22-12.57l2.88-5.28c2.86-5.31,5.29-10.06,7.44-14.5l.37-.76c.73-1.49,1.49-3.04,2.2-4.59,1.71-3.54,3.41-7.24,5-10.93,1.44-3.25,2.78-6.43,3.97-9.4,17.89-43.69,26.86-87.89,26.71-131.37-.14-41.07-8.42-81.33-23.76-118.28ZM948.1,454.69c-1.16,2.9-2.45,5.96-3.86,9.11-1.56,3.62-3.19,7.19-4.85,10.6-.01.04-.04.1-.06.14-.66,1.45-1.4,2.93-2.09,4.35l-.4.79c-2.07,4.31-4.44,8.93-7.2,14.07l-2.86,5.23c-1.73,3.14-3.48,6.22-5.24,9.23-.82,1.4-1.63,2.76-2.43,4.12l-1.87,3.04c-12.57,20.61-27.01,40.83-42.93,60.12-4.37,5.32-7.57,9.11-10.53,12.45-.28.3-.54.61-.8.91-16.73,19.12-36.23,39.08-61.39,62.8-10.57,9.97-21.14,19.73-30.06,27.95l-20.71,18.96c-8.39,7.78-16.15,15.04-23.71,22.19-6.3,5.92-12.54,11.94-18.58,17.76-14.38,13.86-33.49,33.04-54.42,54.32-6.1,6.21-12.36,12.61-18.69,19.1-53.7,55.04-113.18,117.48-134.14,139.53-20.68-21.56-78.69-81.96-131.84-136.06-3.86-3.91-7.67-7.8-11.46-11.64-24.95-25.28-48.09-48.38-64.83-64.4l-.24-.22c-6.01-5.75-12.22-11.69-18.4-17.46-7.74-7.24-15.52-14.47-23.84-22.12l-20.73-18.85c-11.79-10.75-21.38-19.6-30.2-27.83-22.02-20.6-39.74-38.34-55.07-55.19-2.25-2.47-4.45-4.93-6.59-7.37-3.36-3.76-6.97-7.99-11.38-13.3-16.09-19.35-30.62-39.52-43.17-59.96l-1.69-2.7-.18-.29c-2.61-4.33-5.23-8.82-7.74-13.33l-2.86-5.2c-2.82-5.18-5.2-9.79-7.31-14.1l-.33-.68c-.72-1.44-1.46-2.94-2.2-4.55-1.85-3.82-3.51-7.38-4.93-10.64-1.17-2.63-2.41-5.52-3.88-9.11-17.5-42.26-26.37-85-26.4-127.02-.06-79.19,31.23-155.41,85.81-209.1,48.26-47.45,111.3-73.43,177.97-73.43,1.52,0,3.04.01,4.55.04,92.97,1.63,146.09,54.89,201.12,119.06,1.05,1.22,2.59,1.92,4.2,1.92h.01c1.62,0,3.15-.7,4.19-1.95,54.77-64.39,107.67-117.85,200.65-119.89,1.88-.04,3.75-.06,5.61-.06,66.31,0,128.98,25.68,177.2,72.69,54.81,53.47,86.39,129.55,86.67,208.74.15,42.02-8.56,84.8-25.89,127.18Z"/>
        </g>
        <path class="cls-3" d="M389.46,712.12c0,34.56-11.75,66.36-31.47,91.65-24.95-25.28-48.09-48.38-64.83-64.4l-.24-.22c-6.01-5.75-12.22-11.69-18.4-17.46-7.74-7.24-15.52-14.47-23.84-22.12l-20.73-18.85c-11.79-10.75-21.38-19.6-30.2-27.83-22.02-20.6-39.74-38.34-55.07-55.19,25.9-21.69,59.26-34.72,95.64-34.72,82.37,0,149.15,66.78,149.15,149.15Z"/>
        <path class="cls-3" d="M863.78,587.94c-.28.3-.54.61-.8.91-16.73,19.12-36.23,39.08-61.39,62.8-10.57,9.97-21.14,19.73-30.06,27.95l-20.71,18.96c-8.39,7.78-16.15,15.04-23.71,22.19-6.3,5.92-12.54,11.94-18.58,17.76-14.38,13.86-33.49,33.04-54.42,54.32-15.83-23.68-25.03-52.13-25.03-82.72,0-82.36,66.78-149.15,149.15-149.15,31.83,0,61.33,9.97,85.55,26.97Z"/>
        <g>
          <g>
            <g>
              <path class="cls-1" d="M538.75,379.49c0,36.34,9.77,69.94,26.35,97.22,24.99,41.19,65.49,67.97,111.19,67.97,75.96,0,137.54-73.95,137.54-165.18,0-64.06-30.36-119.6-74.73-146.98-18.83-11.64-40.18-18.2-62.81-18.2-75.96,0-137.54,73.95-137.54,165.18Z"/>
              <path d="M676.29,550.2c-45.75,0-89.09-26.4-115.92-70.63-17.76-29.23-27.15-63.84-27.15-100.09,0-94.13,64.18-170.71,143.07-170.71,22.86,0,45.58,6.58,65.72,19.03,47.71,29.44,77.35,87.56,77.35,151.68,0,94.13-64.18,170.71-143.07,170.71ZM676.29,219.83c-72.79,0-132.01,71.62-132.01,159.65,0,34.22,8.83,66.85,25.54,94.35,24.81,40.9,64.61,65.31,106.47,65.31,72.79,0,132.01-71.62,132.01-159.65,0-60.31-27.63-114.83-72.1-142.27-18.66-11.53-38.81-17.38-59.91-17.38Z"/>
            </g>
            <path d="M538.75,379.49c0,36.34,9.77,69.94,26.35,97.22,18.83,11.64,40.18,18.2,62.81,18.2,75.96,0,137.54-73.95,137.54-165.18,0-36.34-9.77-69.94-26.35-97.22-18.83-11.64-40.18-18.2-62.81-18.2-75.96,0-137.54,73.95-137.54,165.18Z"/>
            <path class="cls-1" d="M585.46,290.87c21.44-.56,31.2-7.87,43.54-38.21,1.67-4.11,7.87-2.44,7.24,1.96-4.61,32.42.15,43.65,18.39,54.93,3.18,1.97,1.85,6.88-1.89,6.98-21.44.56-31.2,7.87-43.54,38.21-1.67,4.11-7.87,2.44-7.24-1.96,4.61-32.42-.15-43.65-18.39-54.93-3.18-1.97-1.85-6.88,1.89-6.98Z"/>
            <circle class="cls-1" cx="675.6" cy="442.38" r="9.68"/>
            <circle class="cls-1" cx="636.2" cy="408.52" r="15.9"/>
          </g>
          <g>
            <g>
              <path class="cls-1" d="M459.96,382.25c0,36.34-9.77,69.94-26.35,97.22-24.99,41.19-65.49,67.97-111.19,67.97-75.96,0-137.54-73.95-137.54-165.18,0-64.06,30.36-119.6,74.73-146.98,18.83-11.64,40.18-18.2,62.81-18.2,75.96,0,137.54,73.95,137.54,165.18Z"/>
              <path d="M322.42,552.97c-78.89,0-143.07-76.58-143.07-170.71,0-64.12,29.64-122.24,77.35-151.68,20.14-12.45,42.86-19.03,65.71-19.03,78.89,0,143.07,76.58,143.07,170.71,0,36.25-9.39,70.86-27.15,100.09-26.83,44.22-70.16,70.63-115.92,70.63ZM322.42,222.6c-21.1,0-41.25,5.85-59.9,17.38-44.48,27.45-72.11,81.97-72.11,142.28,0,88.03,59.22,159.65,132.01,159.65,41.85,0,81.65-24.41,106.46-65.31,16.71-27.5,25.54-60.12,25.54-94.35,0-88.03-59.22-159.65-132.01-159.65Z"/>
            </g>
            <path d="M459.96,382.25c0,36.34-9.77,69.94-26.35,97.22-18.83,11.64-40.18,18.2-62.81,18.2-75.96,0-137.54-73.95-137.54-165.18,0-36.34,9.77-69.94,26.35-97.22,18.83-11.64,40.18-18.2,62.81-18.2,75.96,0,137.54,73.95,137.54,165.18Z"/>
            <path class="cls-1" d="M413.26,293.64c-21.44-.56-31.2-7.87-43.54-38.21-1.67-4.11-7.87-2.44-7.24,1.96,4.61,32.42-.15,43.65-18.39,54.93-3.18,1.97-1.85,6.88,1.89,6.98,21.44.56,31.2,7.87,43.54,38.21,1.67,4.11,7.87,2.44,7.24-1.96-4.61-32.42.15-43.65,18.39-54.93,3.18-1.97,1.85-6.88-1.89-6.98Z"/>
            <circle class="cls-1" cx="323.11" cy="445.15" r="9.68"/>
            <circle class="cls-1" cx="362.51" cy="411.28" r="15.9"/>
          </g>
        </g>
        <path d="M503.5,687.05c-48.02,0-87.08-39.07-87.08-87.08,0-3.05,2.48-5.53,5.53-5.53s5.53,2.48,5.53,5.53c0,41.92,34.11,76.03,76.03,76.03s76.03-34.11,76.03-76.03c0-3.05,2.48-5.53,5.53-5.53s5.53,2.48,5.53,5.53c0,48.02-39.07,87.08-87.08,87.08Z"/>
      </g>
    </g>
  </g>
</svg>