<?xml version="1.0" encoding="UTF-8"?>
<svg xmlns="http://www.w3.org/2000/svg" version="1.1" viewBox="0 0 1000 1000">
  <defs>
    <style>
      .cls-1 {
        fill: #ff6c0d;
      }

      .cls-2 {
        fill: #fcd200;
      }

      .cls-3 {
        fill: #fff2dc;
      }

      .cls-4 {
        fill: #fa3310;
      }

      .cls-5 {
        fill: #fe81aa;
      }
    </style>
  </defs>
  <!-- Generator: Adobe Illustrator 28.6.0, SVG Export Plug-In . SVG Version: 1.2.0 Build 709)  -->
  <g>
    <g id="Layer_1">
      <g>
        <g>
          <ellipse class="cls-4" cx="500.27" cy="564.38" rx="371.66" ry="361.91"/>
          <path d="M500.27,930.62c-100.41,0-194.81-38.08-265.83-107.23-71.04-69.18-110.17-161.16-110.17-259.01s39.13-189.83,110.17-259.01c71.01-69.15,165.42-107.23,265.83-107.23s194.81,38.08,265.83,107.23c71.04,69.18,110.17,161.16,110.17,259.01s-39.13,189.83-110.17,259.01c-71.01,69.15-165.42,107.23-265.83,107.23ZM500.27,206.79c-202.55,0-367.34,160.41-367.34,357.59s164.79,357.59,367.34,357.59,367.34-160.41,367.34-357.59-164.79-357.59-367.34-357.59Z"/>
        </g>
        <g>
          <ellipse class="cls-1" cx="500.27" cy="435.62" rx="371.66" ry="361.91"/>
          <path d="M500.27,801.86c-100.41,0-194.81-38.08-265.83-107.23-71.04-69.18-110.17-161.16-110.17-259.01s39.13-189.83,110.17-259.01c71.01-69.15,165.42-107.23,265.83-107.23s194.81,38.08,265.83,107.23c71.04,69.18,110.17,161.16,110.17,259.01s-39.13,189.83-110.17,259.01c-71.01,69.15-165.42,107.23-265.83,107.23ZM500.27,78.03c-202.55,0-367.34,160.41-367.34,357.59s164.79,357.59,367.34,357.59,367.34-160.41,367.34-357.59S702.82,78.03,500.27,78.03Z"/>
        </g>
        <g>
          <ellipse class="cls-2" cx="499.73" cy="506.12" rx="371.66" ry="361.91"/>
          <path d="M499.73,872.36c-100.41,0-194.81-38.08-265.83-107.23-71.04-69.18-110.17-161.16-110.17-259.01s39.13-189.83,110.17-259.01c71.01-69.15,165.42-107.23,265.83-107.23s194.81,38.08,265.83,107.23c71.04,69.18,110.17,161.16,110.17,259.01s-39.13,189.83-110.17,259.01c-71.01,69.15-165.42,107.23-265.83,107.23ZM499.73,148.53c-202.55,0-367.34,160.41-367.34,357.59s164.79,357.59,367.34,357.59,367.34-160.41,367.34-357.59-164.79-357.59-367.34-357.59Z"/>
        </g>
        <g>
          <g>
            <g>
              <circle class="cls-3" cx="387.39" cy="473.12" r="77.9"/>
              <path d="M387.39,555.35c-45.34,0-82.23-36.89-82.23-82.23s36.89-82.23,82.23-82.23,82.23,36.89,82.23,82.23-36.89,82.23-82.23,82.23ZM387.39,399.54c-40.57,0-73.58,33.01-73.58,73.58s33.01,73.58,73.58,73.58,73.58-33.01,73.58-73.58-33.01-73.58-73.58-73.58Z"/>
            </g>
            <circle cx="387.39" cy="473.12" r="58.36"/>
          </g>
          <g>
            <g>
              <circle class="cls-3" cx="612.07" cy="473.12" r="77.9"/>
              <path d="M612.07,555.35c-45.34,0-82.23-36.89-82.23-82.23s36.89-82.23,82.23-82.23,82.23,36.89,82.23,82.23-36.89,82.23-82.23,82.23ZM612.07,399.54c-40.57,0-73.58,33.01-73.58,73.58s33.01,73.58,73.58,73.58,73.58-33.01,73.58-73.58-33.01-73.58-73.58-73.58Z"/>
            </g>
            <circle cx="612.07" cy="473.12" r="58.36"/>
          </g>
        </g>
        <g>
          <circle class="cls-5" cx="248.17" cy="622.98" r="51.39"/>
          <circle class="cls-5" cx="751.29" cy="622.98" r="51.39"/>
        </g>
        <path d="M499.27,619.19c-20.29,0-36.79-16.5-36.79-36.79,0-2.39,1.94-4.33,4.33-4.33s4.33,1.94,4.33,4.33c0,15.51,12.62,28.13,28.13,28.13s28.13-12.62,28.13-28.13c0-2.39,1.94-4.33,4.33-4.33s4.33,1.94,4.33,4.33c0,20.29-16.5,36.79-36.79,36.79Z"/>
      </g>
    </g>
  </g>
</svg>