<?xml version="1.0" encoding="UTF-8"?>
<svg xmlns="http://www.w3.org/2000/svg" version="1.1" viewBox="0 0 1000 1000">
  <defs>
    <style>
      .cls-1 {
        fill: #ff6c0d;
      }

      .cls-2 {
        fill: #fcd200;
      }

      .cls-3 {
        fill: #fff2dc;
      }

      .cls-4 {
        fill: #fa3310;
      }

      .cls-5 {
        fill: #fe81aa;
      }
    </style>
  </defs>
  <!-- Generator: Adobe Illustrator 28.6.0, SVG Export Plug-In . SVG Version: 1.2.0 Build 709)  -->
  <g>
    <g id="Layer_1">
      <g>
        <g>
          <g>
            <polygon class="cls-1" points="845.76 360.29 680.51 501.53 843.28 645.7 626.5 628.78 639.71 845.76 498.47 680.51 354.3 843.28 371.22 626.5 154.24 639.71 319.49 498.47 156.72 354.3 373.5 371.22 360.29 154.24 501.53 319.49 645.7 156.72 628.78 373.5 845.76 360.29"/>
            <path d="M639.71,850.03c-1.22,0-2.42-.53-3.25-1.5l-138.05-161.52-140.92,159.1c-1.22,1.37-3.18,1.82-4.86,1.1-1.69-.72-2.73-2.43-2.59-4.26l16.54-211.89-212.09,12.91c-1.85.13-3.53-.96-4.22-2.66-.69-1.7-.21-3.65,1.18-4.84l161.52-138.05-159.1-140.92c-1.37-1.22-1.82-3.17-1.1-4.86.72-1.69,2.44-2.72,4.26-2.59l211.89,16.54-12.91-212.09c-.11-1.83.96-3.53,2.66-4.22,1.7-.69,3.65-.21,4.84,1.18l138.05,161.52,140.92-159.1c1.21-1.37,3.17-1.82,4.86-1.1,1.69.72,2.73,2.43,2.59,4.26l-16.54,211.89,212.09-12.91c1.82-.12,3.53.96,4.22,2.66.69,1.7.21,3.65-1.18,4.84l-161.52,138.05,159.1,140.92c1.37,1.22,1.82,3.17,1.1,4.86-.72,1.69-2.43,2.73-4.26,2.59l-211.89-16.54,12.91,212.09c.11,1.83-.96,3.53-2.66,4.22-.52.21-1.06.31-1.6.31ZM498.47,676.24h.04c1.23.01,2.4.56,3.21,1.5l132.96,155.56-12.43-204.27c-.08-1.23.39-2.44,1.27-3.3.88-.87,2.09-1.31,3.32-1.21l204.09,15.93-153.24-135.73c-.92-.82-1.45-2-1.44-3.23.01-1.23.56-2.4,1.5-3.21l155.56-132.96-204.26,12.43c-1.25.08-2.44-.39-3.3-1.27-.87-.88-1.31-2.09-1.21-3.32l15.93-204.09-135.73,153.24c-.81.91-1.97,1.44-3.19,1.44h-.04c-1.23-.01-2.4-.56-3.21-1.5l-132.96-155.56,12.43,204.26c.08,1.23-.39,2.44-1.27,3.3-.88.87-2.09,1.3-3.32,1.21l-204.09-15.93,153.24,135.73c.92.82,1.45,2,1.44,3.23-.01,1.23-.56,2.4-1.5,3.21l-155.56,132.96,204.26-12.43c1.24-.07,2.44.39,3.3,1.27.87.88,1.31,2.09,1.21,3.32l-15.93,204.09,135.73-153.24c.81-.91,1.97-1.44,3.19-1.44Z"/>
          </g>
          <g>
            <polygon class="cls-4" points="865.78 427.39 677.04 535.25 809.99 707.31 600.2 650.16 572.61 865.78 464.75 677.04 292.69 809.99 349.84 600.2 134.21 572.61 322.96 464.75 190.01 292.69 399.8 349.84 427.39 134.21 535.25 322.96 707.31 190.01 650.16 399.8 865.78 427.39"/>
            <path d="M572.61,870.05c-1.51,0-2.93-.8-3.7-2.15l-105.42-184.48-168.18,129.95c-1.45,1.12-3.46,1.19-4.98.17-1.52-1.02-2.23-2.9-1.75-4.67l55.86-205.06-210.76-26.97c-1.82-.23-3.29-1.6-3.64-3.4-.36-1.8.48-3.63,2.07-4.54l184.48-105.42-129.95-168.18c-1.12-1.45-1.19-3.46-.17-4.98,1.02-1.52,2.9-2.23,4.67-1.75l205.06,55.86,26.97-210.76c.23-1.82,1.6-3.29,3.4-3.64,1.8-.36,3.63.48,4.54,2.07l105.42,184.48,168.18-129.95c1.45-1.12,3.46-1.19,4.98-.17,1.52,1.02,2.23,2.9,1.75,4.67l-55.86,205.06,210.76,26.97c1.82.23,3.29,1.6,3.64,3.4.36,1.8-.48,3.63-2.07,4.54l-184.48,105.42,129.95,168.18c1.12,1.45,1.19,3.46.17,4.98-1.02,1.53-2.9,2.22-4.67,1.75l-205.06-55.86-26.97,210.76c-.23,1.82-1.6,3.29-3.4,3.64-.28.06-.56.08-.83.08ZM464.75,672.78c.28,0,.56.03.83.08,1.21.24,2.26,1,2.87,2.07l101.54,177.68,25.97-202.99c.16-1.22.84-2.32,1.86-3.01,1.03-.68,2.3-.89,3.49-.57l197.51,53.81-125.16-161.99c-.76-.98-1.05-2.23-.81-3.44s1-2.26,2.07-2.87l177.68-101.54-202.99-25.97c-1.22-.16-2.32-.84-3.01-1.86-.69-1.03-.89-2.3-.57-3.49l53.8-197.51-161.99,125.16c-.98.76-2.23,1.05-3.44.81-1.21-.24-2.26-1-2.87-2.07l-101.54-177.68-25.97,202.99c-.16,1.22-.84,2.32-1.86,3.01-1.03.69-2.3.9-3.49.57l-197.51-53.8,125.16,161.99c.76.98,1.05,2.23.81,3.44-.24,1.21-1,2.26-2.07,2.87l-177.68,101.54,202.99,25.97c1.22.16,2.32.84,3.01,1.86.69,1.03.89,2.3.57,3.49l-53.8,197.51,161.99-125.16c.75-.58,1.67-.89,2.61-.89Z"/>
          </g>
          <g>
            <polygon class="cls-5" points="809.12 291.39 676.88 463.93 866.09 571.07 650.53 599.63 708.61 809.12 536.07 676.88 428.93 866.09 400.37 650.53 190.88 708.61 323.12 536.07 133.91 428.93 349.47 400.37 291.39 190.88 463.93 323.12 571.07 133.91 599.63 349.47 809.12 291.39"/>
            <path d="M426.37,879.27l-29.59-223.31-217.04,60.17,137.01-178.76-196.02-111,223.31-29.59-60.17-217.04,178.76,137.01,111-196.02,29.59,223.31,217.04-60.17-137.01,178.76,196.02,111-223.31,29.59,60.17,217.04-178.76-137.01-111,196.02ZM403.95,645.11l27.53,207.8,103.29-182.4,166.32,127.47-55.98-201.93,207.8-27.53-182.4-103.28,127.47-166.32-201.93,55.98-27.53-207.8-103.28,182.4-166.32-127.47,55.98,201.93-207.8,27.53,182.4,103.29-127.47,166.32,201.93-55.98Z"/>
          </g>
          <g>
            <polygon class="cls-2" points="872.92 500 666.79 569.04 763.7 763.7 569.04 666.79 500 872.92 430.95 666.79 236.3 763.7 333.21 569.04 127.08 500 333.21 430.95 236.3 236.3 430.95 333.21 500 127.08 569.04 333.21 763.7 236.3 666.79 430.96 872.92 500"/>
            <path d="M500,877.19c-1.83,0-3.46-1.17-4.05-2.91l-67.49-201.48-190.26,94.72c-1.64.82-3.62.49-4.92-.8-1.3-1.3-1.62-3.28-.8-4.92l94.72-190.26-201.48-67.49c-1.74-.58-2.91-2.21-2.91-4.05s1.17-3.46,2.91-4.05l201.48-67.49-94.72-190.26c-.82-1.64-.49-3.62.8-4.92,1.3-1.3,3.28-1.62,4.92-.8l190.26,94.72,67.49-201.48c.58-1.74,2.21-2.91,4.05-2.91s3.46,1.17,4.05,2.91l67.49,201.48,190.26-94.72c1.64-.82,3.62-.49,4.92.8,1.3,1.3,1.62,3.28.8,4.92l-94.72,190.26,201.48,67.49c1.74.58,2.91,2.21,2.91,4.05s-1.17,3.46-2.91,4.05l-201.48,67.49,94.72,190.26c.82,1.64.49,3.62-.8,4.92-1.3,1.3-3.28,1.62-4.92.8l-190.26-94.72-67.49,201.48c-.58,1.74-2.21,2.91-4.05,2.91ZM430.96,662.52c.55,0,1.11.11,1.63.33,1.14.47,2.02,1.42,2.41,2.59l65,194.05,65-194.05c.39-1.17,1.27-2.11,2.41-2.59,1.14-.47,2.43-.43,3.54.12l183.26,91.23-91.23-183.26c-.55-1.1-.59-2.39-.12-3.54.47-1.14,1.42-2.02,2.59-2.41l194.05-65-194.05-65c-1.17-.39-2.11-1.27-2.59-2.41-.47-1.14-.43-2.43.12-3.54l91.23-183.25-183.26,91.23c-1.1.55-2.4.59-3.54.12-1.14-.47-2.02-1.42-2.41-2.59l-65-194.05-65,194.05c-.39,1.17-1.27,2.11-2.41,2.59-1.14.47-2.43.43-3.54-.12l-183.26-91.23,91.23,183.26c.55,1.1.59,2.39.12,3.54s-1.42,2.02-2.59,2.41l-194.05,65,194.05,65c1.17.39,2.11,1.27,2.59,2.41s.43,2.43-.12,3.54l-91.23,183.25,183.26-91.23c.6-.3,1.25-.45,1.9-.45Z"/>
          </g>
        </g>
        <g>
          <g>
            <g>
              <g>
                <path class="cls-3" d="M519.21,475.47c0,17.72,4.77,34.1,12.85,47.4,12.19,20.08,31.93,33.14,54.21,33.14,37.03,0,67.06-36.06,67.06-80.54,0-31.23-14.8-58.31-36.44-71.66-9.18-5.67-19.59-8.88-30.63-8.88-37.03,0-67.06,36.06-67.06,80.54Z"/>
                <path d="M586.27,560.28c-22.86,0-44.49-13.16-57.86-35.19-8.81-14.5-13.46-31.65-13.46-49.62,0-46.76,32-84.81,71.33-84.81,11.44,0,22.8,3.29,32.87,9.51,23.72,14.64,38.46,43.49,38.46,75.29,0,46.76-32,84.81-71.33,84.81ZM586.27,399.2c-34.62,0-62.79,34.22-62.79,76.27,0,16.4,4.23,32.02,12.22,45.18,11.81,19.47,30.71,31.09,50.57,31.09,34.62,0,62.79-34.22,62.79-76.27,0-28.86-13.18-54.93-34.41-68.03-8.85-5.47-18.39-8.24-28.38-8.24Z"/>
              </g>
              <path d="M519.21,475.47c0,17.72,4.77,34.1,12.85,47.4,9.18,5.67,19.59,8.88,30.63,8.88,37.03,0,67.06-36.06,67.06-80.54,0-17.72-4.77-34.1-12.85-47.4-9.18-5.67-19.59-8.88-30.63-8.88-37.03,0-67.06,36.06-67.06,80.54Z"/>
              <path class="cls-3" d="M541.98,432.27c10.45-.27,15.21-3.84,21.23-18.63.82-2,3.84-1.19,3.53.95-2.25,15.81.07,21.28,8.97,26.78,1.55.96.9,3.36-.92,3.4-10.45.27-15.21,3.84-21.23,18.63-.82,2-3.84,1.19-3.53-.95,2.25-15.81-.07-21.28-8.97-26.78-1.55-.96-.9-3.36.92-3.4Z"/>
              <circle class="cls-3" cx="585.93" cy="506.14" r="4.72"/>
              <circle class="cls-3" cx="566.72" cy="489.63" r="7.75"/>
            </g>
            <g>
              <g>
                <path class="cls-3" d="M480.79,476.82c0,17.72-4.77,34.1-12.85,47.4-12.19,20.08-31.93,33.14-54.21,33.14-37.03,0-67.06-36.06-67.06-80.54,0-31.23,14.8-58.31,36.44-71.66,9.18-5.67,19.59-8.88,30.63-8.88,37.03,0,67.06,36.06,67.06,80.54Z"/>
                <path d="M413.73,561.63c-39.33,0-71.33-38.04-71.33-84.81,0-31.8,14.74-60.66,38.46-75.3,10.06-6.22,21.43-9.51,32.87-9.51,39.33,0,71.33,38.04,71.33,84.81,0,17.96-4.66,35.12-13.47,49.62-13.37,22.04-35,35.19-57.86,35.19ZM413.73,400.55c-9.99,0-19.54,2.77-28.38,8.24-21.23,13.1-34.41,39.17-34.41,68.03,0,42.06,28.17,76.27,62.79,76.27,19.85,0,38.76-11.62,50.57-31.09,8-13.16,12.23-28.79,12.23-45.19,0-42.06-28.17-76.27-62.79-76.27Z"/>
              </g>
              <path d="M480.79,476.82c0,17.72-4.77,34.1-12.85,47.4-9.18,5.67-19.59,8.88-30.63,8.88-37.03,0-67.06-36.06-67.06-80.54,0-17.72,4.77-34.1,12.85-47.4,9.18-5.67,19.59-8.88,30.63-8.88,37.03,0,67.06,36.06,67.06,80.54Z"/>
              <path class="cls-3" d="M458.02,433.62c-10.45-.27-15.21-3.84-21.23-18.63-.82-2-3.84-1.19-3.53.95,2.25,15.81-.07,21.28-8.97,26.78-1.55.96-.9,3.36.92,3.4,10.45.27,15.21,3.84,21.23,18.63.82,2,3.84,1.19,3.53-.95-2.25-15.81.07-21.28,8.97-26.78,1.55-.96.9-3.36-.92-3.4Z"/>
              <circle class="cls-3" cx="414.07" cy="507.49" r="4.72"/>
              <circle class="cls-3" cx="433.28" cy="490.98" r="7.75"/>
            </g>
          </g>
          <path d="M500,617.41c-18.99,0-34.44-15.45-34.44-34.44,0-2.36,1.91-4.27,4.27-4.27s4.27,1.91,4.27,4.27c0,14.28,11.62,25.9,25.9,25.9s25.91-11.62,25.91-25.9c0-2.36,1.91-4.27,4.27-4.27s4.27,1.91,4.27,4.27c0,18.99-15.45,34.44-34.44,34.44Z"/>
        </g>
      </g>
    </g>
  </g>
</svg>