<?xml version="1.0" encoding="UTF-8"?>
<svg xmlns="http://www.w3.org/2000/svg" version="1.1" viewBox="0 0 1000 1000">
  <defs>
    <style>
      .cls-1 {
        fill: #fcd200;
      }

      .cls-2 {
        fill: #fff2dc;
      }

      .cls-3 {
        fill: #fa3310;
      }

      .cls-4 {
        fill: #fe81aa;
      }
    </style>
  </defs>
  <!-- Generator: Adobe Illustrator 28.6.0, SVG Export Plug-In . SVG Version: 1.2.0 Build 709)  -->
  <g>
    <g id="Layer_1">
      <g>
        <g>
          <g>
            <g>
              <ellipse class="cls-4" cx="500" cy="790.86" rx="31.81" ry="192.94"/>
              <path d="M500,988.74c-7.46,0-18.41-6.29-27.38-60.65-6.05-36.7-9.38-85.43-9.38-137.23s3.33-100.53,9.38-137.23c8.96-54.36,19.92-60.65,27.38-60.65s18.41,6.29,27.37,60.65c6.05,36.7,9.38,85.44,9.38,137.23s-3.33,100.53-9.38,137.23c-8.96,54.36-19.92,60.65-27.37,60.65ZM500,602.87c-2.33,0-10.57,9.62-17.61,52.37-5.97,36.18-9.25,84.35-9.25,135.62s3.29,99.44,9.25,135.62c7.05,42.75,15.29,52.37,17.61,52.37s10.57-9.62,17.61-52.37c5.97-36.18,9.25-84.35,9.25-135.62s-3.29-99.44-9.25-135.62c-7.05-42.75-15.28-52.37-17.61-52.37Z"/>
            </g>
            <g>
              <ellipse class="cls-4" cx="418.05" cy="779.08" rx="192.94" ry="31.81" transform="translate(-447.24 960.71) rotate(-73.64)"/>
              <path d="M365.47,969.42c-1.16,0-2.21-.19-3.17-.47-7.16-2.1-15.89-11.22-9.18-65.91,4.53-36.92,15.07-84.62,29.66-134.32,14.59-49.7,31.52-95.52,47.66-129.03,23.92-49.63,36.2-52.59,43.35-50.48,7.16,2.1,15.89,11.22,9.18,65.91-4.53,36.92-15.07,84.62-29.66,134.32-14.59,49.7-31.52,95.52-47.67,129.03-20.71,42.98-32.69,50.95-40.18,50.95ZM470.7,598.66c-2.8,0-13.3,7.88-31.34,45.33-15.92,33.04-32.64,78.32-47.09,127.52-14.45,49.2-24.86,96.34-29.33,132.73-5.28,43-.09,54.55,2.15,55.21,2.24.66,12.85-6.26,31.65-45.28,15.92-33.04,32.64-78.32,47.09-127.52,14.45-49.2,24.86-96.34,29.33-132.73,5.28-43,.09-54.55-2.15-55.21-.09-.03-.2-.04-.31-.04Z"/>
            </g>
            <g>
              <ellipse class="cls-4" cx="342.75" cy="744.69" rx="192.94" ry="31.81" transform="translate(-469.03 630.42) rotate(-57.27)"/>
              <path d="M241.88,912.95c-2.61,0-4.56-.79-6.11-1.79-6.27-4.03-12.09-15.24,9.76-65.82,14.75-34.14,38.3-76.95,66.3-120.52h0c28-43.57,57.16-82.77,82.09-110.37,36.93-40.89,49.54-40.26,55.82-36.22,6.27,4.03,12.09,15.24-9.76,65.82-14.75,34.14-38.3,76.95-66.3,120.52-28,43.57-57.15,82.77-82.09,110.37-27.77,30.74-41.79,38.01-49.71,38.01ZM320.15,730.16c-27.72,43.13-51,85.43-65.54,119.09-17.18,39.77-15.45,52.32-13.49,53.58,1.96,1.26,14.09-2.38,43.13-34.53,24.58-27.21,53.38-65.96,81.1-109.09,27.72-43.13,51-85.43,65.54-119.09,17.18-39.77,15.45-52.32,13.49-53.58-1.96-1.26-14.09,2.38-43.13,34.53-24.58,27.21-53.38,65.96-81.11,109.09h0Z"/>
            </g>
            <g>
              <ellipse class="cls-4" cx="280.18" cy="690.47" rx="192.94" ry="31.81" transform="translate(-383.73 352.13) rotate(-40.91)"/>
              <path d="M140.73,824.11c-5.39,0-8.25-1.92-10.1-4.06-4.88-5.64-7.31-18.03,27.91-60.41,23.77-28.61,58.42-63.04,97.57-96.96,39.14-33.92,78.16-63.32,109.86-82.78,46.96-28.83,58.88-24.67,63.76-19.03,4.88,5.64,7.3,18.03-27.91,60.41-23.77,28.61-58.42,63.04-97.57,96.96-39.14,33.92-78.16,63.32-109.86,82.78-29.17,17.91-44.82,23.09-53.67,23.09ZM419.58,566.69c-5.45,0-19.48,3.88-48.43,21.66-31.25,19.19-69.8,48.24-108.55,81.82-38.75,33.58-73,67.6-96.44,95.81-27.69,33.32-29.57,45.84-28.04,47.61,1.52,1.76,14.19,1.69,51.11-20.98,31.25-19.19,69.8-48.24,108.55-81.82,38.75-33.58,73-67.6,96.44-95.81,27.69-33.32,29.57-45.84,28.04-47.61-.33-.38-1.18-.68-2.68-.68Z"/>
            </g>
            <g>
              <ellipse class="cls-4" cx="235.42" cy="620.83" rx="192.94" ry="31.81" transform="translate(-236.63 153.9) rotate(-24.55)"/>
              <path d="M74.81,711.05c-13.43,0-17.6-4.1-19.38-8.02-3.1-6.78-1.93-19.36,43.8-50.1,30.87-20.75,73.82-44.03,120.93-65.54h0c47.12-21.52,92.83-38.73,128.73-48.47,53.17-14.43,63.44-7.08,66.54-.3,3.1,6.79,1.93,19.36-43.8,50.1-30.87,20.75-73.82,44.03-120.93,65.54-47.12,21.52-92.83,38.73-128.73,48.47-22.49,6.1-37.31,8.31-47.16,8.31ZM396.36,540.51c-8.17,0-22.14,1.78-44.88,7.95-35.39,9.6-80.57,26.62-127.21,47.92h0c-46.64,21.3-89.09,44.3-119.52,64.75-35.96,24.17-41.29,35.66-40.32,37.78.97,2.12,13.14,5.61,54.95-5.73,35.39-9.6,80.57-26.62,127.21-47.92,46.64-21.3,89.09-44.3,119.52-64.75,35.96-24.17,41.29-35.66,40.32-37.78-.44-.97-3.22-2.22-10.07-2.22Z"/>
            </g>
            <g>
              <ellipse class="cls-4" cx="212.1" cy="541.39" rx="192.94" ry="31.81" transform="translate(-74.89 35.7) rotate(-8.18)"/>
              <path d="M90.2,588.12c-3.43,0-6.77-.03-10.03-.1-55.09-1.14-62.87-11.08-63.93-18.47-1.06-7.38,3.6-19.12,56.14-35.73,35.46-11.21,83.23-21.45,134.5-28.82l.7,4.9-.7-4.9c51.27-7.37,99.98-11,137.17-10.24,55.09,1.14,62.87,11.08,63.93,18.46,1.06,7.38-3.6,19.12-56.14,35.73-35.46,11.21-83.23,21.45-134.5,28.82-46.78,6.72-91.43,10.34-127.14,10.34ZM333.98,504.56c-35.23,0-79.38,3.58-125.7,10.24-50.75,7.3-97.96,17.4-132.93,28.46-41.31,13.06-49.66,22.58-49.33,24.89.33,2.31,11.03,9.09,54.34,9.98,36.66.75,84.81-2.85,135.56-10.14,50.75-7.3,97.96-17.4,132.92-28.46,41.31-13.06,49.66-22.58,49.33-24.89-.33-2.31-11.03-9.09-54.34-9.98-3.2-.07-6.49-.1-9.86-.1Z"/>
            </g>
            <g>
              <ellipse class="cls-4" cx="212.1" cy="458.61" rx="31.81" ry="192.94" transform="translate(-272.02 603.28) rotate(-81.82)"/>
              <path d="M334,505.33c-35.71,0-80.36-3.62-127.13-10.34-51.27-7.37-99.04-17.61-134.5-28.82-52.53-16.61-57.2-28.34-56.14-35.73,1.06-7.38,8.84-17.33,63.93-18.46,37.19-.76,85.9,2.87,137.17,10.24,51.27,7.37,99.03,17.61,134.5,28.82,52.53,16.61,57.2,28.34,56.14,35.73-1.06,7.38-8.84,17.33-63.93,18.46-3.26.07-6.61.1-10.03.1ZM90.22,421.77c-3.37,0-6.66.03-9.86.1-43.32.89-54.01,7.68-54.34,9.98-.33,2.31,8.02,11.83,49.33,24.89,34.97,11.06,82.17,21.16,132.93,28.46,50.75,7.3,98.89,10.9,135.56,10.14,43.32-.89,54.01-7.68,54.34-9.98.33-2.31-8.02-11.83-49.33-24.89-34.97-11.06-82.17-21.16-132.92-28.46-46.32-6.66-90.47-10.24-125.7-10.24Z"/>
            </g>
            <g>
              <ellipse class="cls-4" cx="235.42" cy="379.17" rx="31.81" ry="192.94" transform="translate(-207.28 435.81) rotate(-65.45)"/>
              <path d="M396.04,469.39c-9.84,0-24.66-2.21-47.16-8.31-35.9-9.74-81.61-26.96-128.73-48.47-47.11-21.52-90.06-44.79-120.93-65.54-45.73-30.74-46.9-43.31-43.8-50.1,3.1-6.78,13.37-14.14,66.54.29,35.9,9.74,81.61,26.96,128.73,48.47,47.12,21.52,90.06,44.79,120.93,65.54,45.73,30.74,46.9,43.31,43.8,50.1-1.79,3.91-5.96,8.02-19.38,8.02ZM74.49,298.86c-6.86,0-9.63,1.25-10.07,2.22-.97,2.12,4.36,13.61,40.32,37.78,30.44,20.46,72.88,43.45,119.52,64.75,46.64,21.3,91.82,38.32,127.21,47.92,41.81,11.35,53.99,7.85,54.95,5.73.97-2.12-4.36-13.61-40.32-37.78-30.43-20.46-72.88-43.45-119.52-64.75-46.64-21.3-91.82-38.32-127.21-47.92-22.74-6.17-36.71-7.95-44.88-7.95Z"/>
            </g>
            <g>
              <ellipse class="cls-4" cx="280.18" cy="309.53" rx="31.81" ry="192.94" transform="translate(-137.22 318.58) rotate(-49.09)"/>
              <path d="M419.63,443.17c-8.84,0-24.49-5.18-53.67-23.09-31.7-19.46-70.71-48.86-109.86-82.78-39.15-33.92-73.79-68.35-97.57-96.96-35.22-42.37-32.79-54.77-27.91-60.41,4.88-5.64,16.81-9.8,63.76,19.03,31.7,19.46,70.71,48.86,109.86,82.78,39.15,33.92,73.79,68.35,97.57,96.96,35.21,42.37,32.79,54.77,27.91,60.41-1.85,2.13-4.71,4.06-10.1,4.06ZM140.79,185.75c-1.5,0-2.35.29-2.68.68-1.53,1.76.35,14.28,28.04,47.6,23.44,28.2,57.69,62.23,96.44,95.81,38.75,33.58,77.3,62.63,108.55,81.82,36.92,22.67,49.59,22.74,51.11,20.98,1.53-1.76-.35-14.29-28.04-47.61-23.44-28.2-57.69-62.23-96.44-95.81-38.75-33.58-77.3-62.63-108.55-81.82-28.95-17.77-42.99-21.66-48.43-21.66Z"/>
            </g>
            <g>
              <ellipse class="cls-4" cx="342.75" cy="255.31" rx="31.81" ry="192.94" transform="translate(-83.62 225.83) rotate(-32.73)"/>
              <path d="M443.62,423.57c-7.91,0-21.93-7.27-49.71-38.01-24.93-27.6-54.08-66.8-82.09-110.37-28-43.57-51.55-86.37-66.3-120.52-21.85-50.58-16.04-61.79-9.76-65.82,6.27-4.03,18.88-4.67,55.82,36.22,24.93,27.6,54.08,66.8,82.09,110.37,28,43.57,51.55,86.37,66.3,120.52,21.85,50.58,16.04,61.79,9.76,65.82-1.56,1-3.5,1.79-6.11,1.79ZM242.05,96.96c-.43,0-.73.08-.94.21-1.96,1.26-3.69,13.81,13.5,53.58,14.54,33.66,37.82,75.96,65.54,119.09,27.72,43.13,56.52,81.88,81.11,109.09,29.04,32.15,41.18,35.79,43.13,34.53,1.96-1.26,3.69-13.81-13.49-53.58-14.54-33.66-37.82-75.96-65.54-119.09h0c-27.72-43.13-56.52-81.88-81.1-109.09-26.05-28.84-38.49-34.74-42.19-34.74Z"/>
            </g>
            <g>
              <ellipse class="cls-4" cx="418.05" cy="220.92" rx="31.81" ry="192.94" transform="translate(-45.31 126.73) rotate(-16.36)"/>
              <path d="M470.63,411.26c-7.49,0-19.47-7.97-40.18-50.95-16.14-33.51-33.07-79.33-47.66-129.03-14.59-49.7-25.13-97.4-29.66-134.32-6.72-54.69,2.02-63.81,9.18-65.91,7.15-2.1,19.43.84,43.35,50.48,16.15,33.51,33.07,79.33,47.67,129.03h0c14.59,49.7,25.13,97.4,29.66,134.32,6.72,54.69-2.02,63.81-9.18,65.91-.96.28-2.01.47-3.17.47ZM365.41,40.51c-.12,0-.22.01-.31.04-2.24.66-7.43,12.21-2.15,55.21,4.47,36.4,14.89,83.54,29.33,132.73,14.45,49.2,31.17,94.48,47.09,127.52,18.8,39.02,29.42,45.95,31.65,45.28,2.24-.66,7.43-12.21,2.15-55.21-4.47-36.4-14.89-83.54-29.33-132.73-14.45-49.2-31.17-94.48-47.09-127.52-18.04-37.44-28.54-45.33-31.34-45.33Z"/>
            </g>
            <g>
              <ellipse class="cls-4" cx="500" cy="209.14" rx="31.81" ry="192.94"/>
              <path d="M500,407.02c-7.46,0-18.41-6.29-27.38-60.65-6.05-36.7-9.38-85.43-9.38-137.23s3.33-100.53,9.38-137.23c8.96-54.36,19.92-60.65,27.38-60.65s18.41,6.29,27.37,60.65c6.05,36.7,9.38,85.43,9.38,137.23s-3.33,100.53-9.38,137.23c-8.96,54.36-19.92,60.65-27.37,60.65ZM500,21.15c-2.33,0-10.57,9.62-17.61,52.37-5.97,36.18-9.25,84.35-9.25,135.62s3.29,99.44,9.25,135.62c7.05,42.75,15.29,52.37,17.61,52.37s10.57-9.62,17.61-52.37c5.97-36.18,9.25-84.35,9.25-135.62s-3.29-99.44-9.25-135.62c-7.05-42.75-15.28-52.37-17.61-52.37Z"/>
            </g>
            <g>
              <ellipse class="cls-4" cx="581.94" cy="220.92" rx="192.94" ry="31.81" transform="translate(206.02 717.05) rotate(-73.64)"/>
              <path d="M529.36,411.26c-1.16,0-2.21-.19-3.17-.47-7.16-2.1-15.89-11.22-9.18-65.91,4.53-36.92,15.07-84.62,29.66-134.32,14.59-49.7,31.52-95.52,47.66-129.03,23.92-49.64,36.2-52.59,43.35-50.48,7.16,2.1,15.89,11.22,9.18,65.91-4.53,36.92-15.07,84.62-29.66,134.32-14.59,49.7-31.52,95.52-47.67,129.03-20.71,42.98-32.69,50.95-40.18,50.95ZM634.59,40.51c-2.8,0-13.3,7.88-31.34,45.33-15.92,33.04-32.64,78.32-47.09,127.52-14.44,49.2-24.86,96.34-29.33,132.73-5.28,43-.09,54.55,2.15,55.21,2.23.66,12.85-6.26,31.65-45.28,15.92-33.04,32.64-78.32,47.09-127.52h0c14.45-49.2,24.86-96.34,29.33-132.73,5.28-43,.09-54.55-2.15-55.21-.09-.03-.2-.04-.31-.04Z"/>
            </g>
            <g>
              <ellipse class="cls-4" cx="657.25" cy="255.31" rx="192.94" ry="31.81" transform="translate(87.13 670.19) rotate(-57.27)"/>
              <path d="M556.38,423.57c-2.61,0-4.56-.79-6.11-1.79-6.28-4.03-12.09-15.24,9.76-65.82,14.75-34.14,38.3-76.94,66.3-120.52,28-43.57,57.15-82.77,82.09-110.37,36.93-40.89,49.55-40.26,55.82-36.22,6.28,4.03,12.09,15.24-9.76,65.82-14.75,34.14-38.3,76.94-66.3,120.52-28,43.57-57.15,82.77-82.09,110.37-27.77,30.74-41.79,38.01-49.71,38.01ZM757.95,96.96c-3.7,0-16.14,5.9-42.19,34.74-24.58,27.21-53.38,65.96-81.1,109.09-27.72,43.13-51,85.43-65.54,119.09-17.18,39.77-15.45,52.32-13.49,53.58,1.97,1.26,14.09-2.38,43.13-34.53,24.58-27.21,53.38-65.96,81.1-109.09,27.72-43.13,51-85.43,65.54-119.09,17.18-39.77,15.45-52.32,13.49-53.58-.2-.13-.51-.21-.94-.21Z"/>
            </g>
            <g>
              <ellipse class="cls-4" cx="719.82" cy="309.53" rx="192.94" ry="31.81" transform="translate(-26.88 546.98) rotate(-40.91)"/>
              <path d="M580.37,443.17c-5.39,0-8.25-1.92-10.1-4.06-4.88-5.64-7.31-18.03,27.91-60.41,23.77-28.61,58.42-63.04,97.57-96.96,39.14-33.92,78.16-63.32,109.86-82.78,46.95-28.82,58.88-24.66,63.76-19.03,4.88,5.64,7.3,18.03-27.91,60.41-23.77,28.61-58.42,63.04-97.57,96.96l-3.24-3.74,3.24,3.74c-39.14,33.92-78.16,63.32-109.86,82.78-29.17,17.91-44.82,23.09-53.67,23.09ZM859.21,185.75c-5.45,0-19.48,3.88-48.43,21.66-31.25,19.19-69.8,48.24-108.55,81.82-38.75,33.58-73,67.6-96.44,95.8-27.69,33.32-29.57,45.84-28.04,47.61,1.52,1.76,14.19,1.68,51.11-20.98,31.25-19.19,69.8-48.24,108.55-81.82,38.75-33.58,73-67.6,96.44-95.8,27.69-33.32,29.57-45.84,28.04-47.61-.33-.38-1.18-.68-2.68-.68Z"/>
            </g>
            <g>
              <ellipse class="cls-4" cx="764.58" cy="379.17" rx="192.94" ry="31.81" transform="translate(-88.42 351.88) rotate(-24.55)"/>
              <path d="M603.96,469.39c-13.43,0-17.6-4.1-19.38-8.02-3.1-6.78-1.93-19.36,43.8-50.1,30.87-20.75,73.82-44.03,120.93-65.54,47.12-21.52,92.83-38.73,128.73-48.47,53.18-14.43,63.44-7.08,66.54-.29,3.1,6.78,1.93,19.36-43.8,50.1-30.87,20.75-73.82,44.03-120.93,65.54h0c-47.12,21.52-92.83,38.73-128.73,48.47-22.5,6.1-37.31,8.31-47.16,8.31ZM925.51,298.86c-8.17,0-22.14,1.78-44.88,7.95-35.39,9.6-80.57,26.62-127.21,47.92-46.64,21.3-89.09,44.3-119.52,64.75-35.96,24.17-41.29,35.66-40.32,37.78.97,2.12,13.14,5.61,54.95-5.73,35.39-9.6,80.57-26.62,127.21-47.92,46.64-21.3,89.09-44.3,119.52-64.75,35.96-24.17,41.29-35.66,40.32-37.78-.44-.97-3.22-2.22-10.07-2.22Z"/>
            </g>
            <g>
              <ellipse class="cls-4" cx="787.9" cy="458.61" rx="192.94" ry="31.81" transform="translate(-57.25 116.8) rotate(-8.18)"/>
              <path d="M665.99,505.33c-3.43,0-6.77-.03-10.03-.1-55.09-1.14-62.87-11.08-63.93-18.46-1.06-7.38,3.6-19.12,56.14-35.73,35.46-11.21,83.23-21.45,134.5-28.82,51.27-7.37,99.98-11.01,137.17-10.24,55.09,1.14,62.87,11.08,63.93,18.46,1.06,7.38-3.6,19.12-56.14,35.73-35.46,11.21-83.23,21.45-134.5,28.82-46.78,6.72-91.43,10.34-127.14,10.34ZM909.77,421.77c-35.23,0-79.38,3.58-125.7,10.24-50.75,7.3-97.96,17.4-132.92,28.46-41.31,13.06-49.66,22.58-49.33,24.89.33,2.31,11.03,9.09,54.34,9.98,36.66.75,84.81-2.85,135.56-10.14l.7,4.9-.7-4.9c50.75-7.3,97.96-17.4,132.92-28.46,41.31-13.06,49.66-22.58,49.33-24.89-.33-2.31-11.03-9.09-54.34-9.98-3.2-.07-6.49-.1-9.86-.1Z"/>
            </g>
            <g>
              <ellipse class="cls-4" cx="787.9" cy="541.39" rx="31.81" ry="192.94" transform="translate(139.89 1244.22) rotate(-81.82)"/>
              <path d="M909.8,588.12c-35.71,0-80.36-3.62-127.13-10.34-51.27-7.37-99.04-17.61-134.5-28.82-52.53-16.61-57.2-28.34-56.14-35.73,1.06-7.38,8.84-17.33,63.93-18.46,37.2-.77,85.9,2.87,137.17,10.24,51.27,7.37,99.03,17.61,134.5,28.82,52.53,16.61,57.2,28.34,56.14,35.73-1.06,7.38-8.84,17.33-63.93,18.46-3.26.07-6.61.1-10.03.1ZM666.02,504.56c-3.37,0-6.65.03-9.86.1-43.32.89-54.01,7.68-54.34,9.98-.33,2.31,8.02,11.83,49.33,24.89,34.97,11.05,82.17,21.16,132.93,28.46,50.75,7.3,98.89,10.9,135.56,10.14,43.32-.89,54.01-7.68,54.34-9.98.33-2.31-8.02-11.83-49.33-24.89-34.97-11.05-82.17-21.16-132.92-28.46-46.32-6.66-90.47-10.24-125.7-10.24Z"/>
            </g>
            <g>
              <ellipse class="cls-4" cx="764.58" cy="620.83" rx="31.81" ry="192.94" transform="translate(-117.77 1058.41) rotate(-65.45)"/>
              <path d="M925.19,711.05c-9.84,0-24.66-2.21-47.16-8.31-35.9-9.74-81.61-26.96-128.73-48.47-47.11-21.52-90.06-44.79-120.93-65.54-45.73-30.74-46.9-43.31-43.8-50.1,3.1-6.78,13.37-14.14,66.54.29,35.9,9.74,81.61,26.96,128.73,48.47,47.12,21.52,90.06,44.79,120.93,65.54,45.73,30.74,46.9,43.31,43.8,50.1-1.79,3.91-5.96,8.02-19.38,8.02ZM603.64,540.51c-6.86,0-9.63,1.25-10.07,2.22-.97,2.12,4.36,13.61,40.32,37.78,30.44,20.46,72.88,43.45,119.52,64.75h0c46.64,21.3,91.82,38.32,127.21,47.92,41.82,11.35,53.99,7.85,54.95,5.73.97-2.12-4.36-13.61-40.32-37.78-30.44-20.46-72.88-43.46-119.52-64.75-46.64-21.3-91.82-38.32-127.21-47.92-22.74-6.17-36.71-7.95-44.88-7.95Z"/>
            </g>
            <g>
              <ellipse class="cls-4" cx="719.82" cy="690.47" rx="31.81" ry="192.94" transform="translate(-273.39 782.31) rotate(-49.09)"/>
              <path d="M859.27,824.11c-8.84,0-24.49-5.18-53.67-23.09-31.7-19.46-70.71-48.86-109.86-82.78-39.15-33.92-73.79-68.35-97.57-96.96-35.21-42.37-32.79-54.77-27.91-60.41,4.88-5.64,16.81-9.8,63.76,19.03,31.7,19.46,70.71,48.86,109.86,82.78,39.15,33.92,73.79,68.35,97.57,96.96,35.21,42.37,32.79,54.77,27.91,60.41-1.85,2.13-4.71,4.06-10.1,4.06ZM580.42,566.69c-1.5,0-2.35.29-2.68.68-1.53,1.76.35,14.28,28.04,47.61,23.44,28.2,57.69,62.23,96.44,95.8h0c38.75,33.58,77.3,62.64,108.55,81.82,36.93,22.67,49.59,22.74,51.11,20.98,1.53-1.76-.35-14.28-28.04-47.61-23.44-28.2-57.69-62.23-96.44-95.8-38.75-33.58-77.3-62.64-108.55-81.82-28.95-17.77-42.99-21.66-48.43-21.66Z"/>
            </g>
            <g>
              <ellipse class="cls-4" cx="657.25" cy="744.69" rx="31.81" ry="192.94" transform="translate(-298.27 473.55) rotate(-32.73)"/>
              <path d="M758.12,912.95c-7.92,0-21.94-7.27-49.71-38.01-24.93-27.6-54.08-66.8-82.09-110.37-28-43.57-51.55-86.38-66.3-120.52-21.85-50.58-16.04-61.79-9.76-65.82,6.27-4.03,18.89-4.66,55.82,36.22,24.93,27.6,54.08,66.8,82.09,110.37,28,43.57,51.55,86.38,66.3,120.52,21.85,50.58,16.04,61.79,9.76,65.82-1.56,1-3.5,1.79-6.11,1.79ZM634.65,759.21c27.72,43.13,56.52,81.88,81.1,109.09,29.04,32.15,41.16,35.79,43.13,34.53,1.96-1.26,3.69-13.81-13.49-53.58-14.54-33.66-37.82-75.96-65.54-119.09-27.72-43.13-56.52-81.88-81.1-109.09-29.04-32.15-41.16-35.79-43.13-34.53-1.96,1.26-3.69,13.81,13.49,53.58,14.54,33.66,37.82,75.96,65.54,119.09Z"/>
            </g>
            <g>
              <ellipse class="cls-4" cx="581.94" cy="779.08" rx="31.81" ry="192.94" transform="translate(-195.92 195.51) rotate(-16.36)"/>
              <path d="M634.52,969.42c-7.49,0-19.47-7.97-40.18-50.95-16.14-33.51-33.07-79.33-47.66-129.03-14.59-49.7-25.13-97.4-29.66-134.32-6.72-54.69,2.02-63.8,9.18-65.91,7.15-2.1,19.43.84,43.35,50.48,16.15,33.51,33.07,79.33,47.67,129.03,14.59,49.7,25.13,97.4,29.66,134.32,6.72,54.69-2.02,63.8-9.18,65.91-.96.28-2.01.47-3.17.47ZM556.17,786.65c14.45,49.2,31.17,94.48,47.09,127.52,18.8,39.02,29.42,45.95,31.65,45.28,2.24-.66,7.43-12.21,2.15-55.21-4.47-36.4-14.89-83.54-29.33-132.73-14.45-49.2-31.17-94.48-47.09-127.52-18.8-39.02-29.42-45.94-31.65-45.28-2.24.66-7.43,12.21-2.15,55.21,4.47,36.4,14.89,83.54,29.33,132.73h0Z"/>
            </g>
          </g>
          <g>
            <circle class="cls-1" cx="506.38" cy="502.59" r="142.73"/>
            <path d="M506.38,650.26c-81.43,0-147.67-66.25-147.67-147.67s66.25-147.67,147.67-147.67,147.67,66.25,147.67,147.67-66.25,147.67-147.67,147.67ZM506.38,364.81c-75.97,0-137.78,61.81-137.78,137.78s61.81,137.78,137.78,137.78,137.78-61.81,137.78-137.78-61.81-137.78-137.78-137.78Z"/>
          </g>
        </g>
        <g>
          <path class="cls-2" d="M492.74,482.62c0,7.97-2.08,15.48-5.76,22.08-8.48,15.24-25.47,25.64-45.05,25.64-12.99,0-24.83-4.58-33.81-12.1-10.43-8.73-16.99-21.45-16.99-35.61,0-26.35,22.75-47.71,50.8-47.71s50.8,21.36,50.8,47.71Z"/>
          <ellipse class="cls-2" cx="575.35" cy="482.62" rx="50.8" ry="47.71"/>
          <g>
            <path class="cls-3" d="M544.75,554.72c1.36,0,2.46,1.1,2.46,2.46v13.68c0,.68-.01,1.34-.05,2.02-.73,14.89-9.54,27.65-22.13,34-5.46,2.76-11.62,4.31-18.15,4.31-6,0-11.69-1.31-16.8-3.66-13.31-6.1-22.71-19.24-23.47-34.65-.04-.67-.05-1.34-.05-2.02v-13.68c0-1.36,1.1-2.46,2.46-2.46h75.74Z"/>
            <path class="cls-2" d="M545.16,554.72c1.13,0,2.04.91,2.04,2.04v14.09c0,.68-.01,1.34-.05,2.02h-80.55c-.04-.67-.05-1.34-.05-2.02v-14.09c0-1.13.91-2.04,2.04-2.04h76.58Z"/>
            <path class="cls-4" d="M525.02,603.11v3.76c-5.46,2.76-11.62,4.31-18.15,4.31-6,0-11.69-1.31-16.8-3.66v-4.4c0-9.65,7.82-17.48,17.48-17.48,4.83,0,9.19,1.96,12.35,5.12,3.17,3.16,5.12,7.53,5.12,12.35Z"/>
            <g>
              <path d="M491.45,507.19c4.19-7.51,6.4-16.01,6.4-24.57,0-29.13-25.08-52.83-55.92-52.83s-55.92,23.7-55.92,52.83c0,15.1,6.86,29.51,18.82,39.53,10.24,8.57,23.41,13.3,37.1,13.3,20.84,0,39.81-10.83,49.52-28.26ZM441.93,440.03c25.19,0,45.69,19.11,45.69,42.59,0,4.06-.7,8.08-1.92,11.96-4.44-19.57-20.16-34.05-38.92-34.05-3.75,0-7.37.57-10.81,1.66,4.67,6.15,4.99,13.93.5,18.02-4.84,4.42-13.45,2.87-19.23-3.45-.24-.27-.47-.53-.69-.8-6.22,7.97-9.98,18.42-9.98,29.86,0,1.35.14,2.66.25,3.98-6.76-7.6-10.59-17.2-10.59-27.18,0-23.49,20.5-42.59,45.69-42.59ZM440.17,501.38c0-2.06,2.17-3.74,4.86-3.74s4.86,1.67,4.86,3.74-2.17,3.74-4.86,3.74-4.86-1.67-4.86-3.74ZM462.94,515.58c-.06-.85.71-1.32,1.37-1.73,1.76-1.11,3.28-2.6,4.41-4.35,1.07-1.66,1.86-3.59,3.44-4.78.66-.5,1.55-.83,2.3-.49.26.12.49.33.68.55.71.81,1.05,1.92.95,2.99-.11,1.04-.63,2-1.22,2.86-1.47,2.14-3.46,3.91-5.73,5.16-1.59.87-4.25,2.53-5.76.72-.23-.27-.4-.58-.43-.94Z"/>
              <path d="M575.35,429.79c-30.84,0-55.92,23.7-55.92,52.83s25.08,52.83,55.92,52.83,55.92-23.7,55.92-52.83-25.08-52.83-55.92-52.83ZM566.94,501.38c0-2.06,2.17-3.74,4.86-3.74s4.86,1.67,4.86,3.74-2.17,3.74-4.86,3.74-4.86-1.67-4.86-3.74ZM553.46,516.52c-1.52,1.81-4.18.15-5.77-.72-2.27-1.25-4.26-3.02-5.72-5.16-.59-.86-1.11-1.82-1.22-2.86-.11-1.07.24-2.18.95-2.99.19-.22.42-.42.68-.55.75-.34,1.64,0,2.3.49,1.58,1.19,2.36,3.12,3.44,4.78,1.13,1.75,2.65,3.24,4.41,4.35.65.41,1.42.88,1.37,1.73-.03.35-.2.67-.42.94ZM600.26,475.96c-.22.27-.45.54-.7.8-5.78,6.33-14.39,7.87-19.23,3.45-4.48-4.1-4.16-11.87.5-18.02-3.44-1.08-7.06-1.66-10.81-1.66-18.51,0-34.05,14.11-38.72,33.28-1.05-3.57-1.65-7.31-1.65-11.19,0-23.49,20.5-42.59,45.69-42.59s45.69,19.11,45.69,42.59c0,10.59-4.19,20.27-11.08,27.73.13-1.5.28-3,.28-4.54,0-11.44-3.76-21.89-9.98-29.86Z"/>
              <path d="M551.96,555.01c-.65-2.5-2.54-4.39-5.04-5.05-.43-.13-.88-.22-1.34-.27-.14,0-.27-.08-.41-.08h-76.58c-.15,0-.27.08-.42.08-.46.05-.9.14-1.32.27-2.51.65-4.4,2.55-5.05,5.05-.13.43-.22.87-.27,1.33,0,.15-.08.27-.08.42v14.09c0,.88.02,1.62.05,2.27.79,15.85,9.73,29.85,23.47,37.43v.24l2.97,1.38c5.96,2.74,12.34,4.13,18.94,4.13.18,0,.35-.03.53-.03.05,0,.1.03.15.03.1,0,.17-.05.27-.05,6.85-.14,13.41-1.72,19.51-4.8l2.81-1.42v-.24c12.95-7.75,21.37-21.46,22.11-36.61.04-.71.07-1.44.07-2.32v-14.09c0-.15-.08-.27-.08-.42-.05-.46-.14-.91-.27-1.34ZM519.55,603.68c-1.66.64-3.38,1.14-5.12,1.52-.46.1-.92.18-1.38.26-.13.02-.26.02-.39.04v-3.73c0-2.82-2.29-5.12-5.11-5.12s-5.11,2.29-5.11,5.12v3.93c-.12-.01-.24,0-.37-.02-.46-.06-.92-.12-1.38-.2-1.76-.31-3.5-.73-5.19-1.31-.11-.04-.21-.09-.31-.12v-.92c0-6.81,5.55-12.36,12.36-12.36,3.3,0,6.4,1.29,8.74,3.63,2.33,2.32,3.62,5.42,3.62,8.73v.41c-.12.05-.23.11-.35.15ZM523.52,587.15c-4.26-4.27-9.94-6.63-15.98-6.63-10.94,0-20.08,7.82-22.14,18.16-6.64-5.11-11.27-12.4-12.98-20.69h68.88c-1.61,7.77-5.82,14.74-11.87,19.82-.96-3.99-2.94-7.68-5.91-10.65ZM471.66,567.75v-7.91h70.43v7.91h-70.43Z"/>
            </g>
          </g>
        </g>
      </g>
    </g>
  </g>
</svg>