<?xml version="1.0" encoding="UTF-8"?>
<svg xmlns="http://www.w3.org/2000/svg" version="1.1" viewBox="0 0 1000 1000">
  <defs>
    <style>
      .cls-1 {
        fill: #ff6c0d;
      }

      .cls-2 {
        fill: #fff2dc;
      }

      .cls-3 {
        fill: #fa3310;
      }

      .cls-4 {
        fill: #fe81aa;
      }
    </style>
  </defs>
  <!-- Generator: Adobe Illustrator 28.6.0, SVG Export Plug-In . SVG Version: 1.2.0 Build 709)  -->
  <g>
    <g id="Layer_1">
      <g>
        <g>
          <g>
            <circle class="cls-4" cx="500" cy="538.79" r="441.36"/>
            <path d="M500,985.5c-119.32,0-231.5-46.47-315.87-130.84-84.37-84.37-130.84-196.55-130.84-315.87s46.47-231.5,130.84-315.87c84.37-84.37,196.55-130.84,315.87-130.84s231.5,46.47,315.87,130.84c84.37,84.37,130.84,196.55,130.84,315.87s-46.47,231.5-130.84,315.87c-84.37,84.37-196.55,130.84-315.87,130.84ZM500,102.77c-240.42,0-436.01,195.6-436.01,436.01s195.6,436.01,436.01,436.01,436.01-195.6,436.01-436.01S740.42,102.77,500,102.77Z"/>
          </g>
          <g>
            <circle class="cls-1" cx="500" cy="461.21" r="441.36"/>
            <path d="M500,907.93c-119.32,0-231.5-46.47-315.87-130.84-84.37-84.37-130.84-196.55-130.84-315.87s46.47-231.5,130.84-315.87C268.5,60.97,380.68,14.5,500,14.5s231.5,46.47,315.87,130.84c84.37,84.37,130.84,196.55,130.84,315.87s-46.47,231.5-130.84,315.87c-84.37,84.37-196.55,130.84-315.87,130.84ZM500,25.2c-240.42,0-436.01,195.6-436.01,436.01s195.6,436.01,436.01,436.01,436.01-195.6,436.01-436.01S740.42,25.2,500,25.2Z"/>
          </g>
          <g>
            <g>
              <path class="cls-2" d="M478.6,408.83c0,80.82-67.52,146.33-150.8,146.33s-150.81-65.51-150.81-146.33c0-7.06.51-14.28,1.52-21.61,10.39-76.54,73.27-163.05,149.29-163.05,66.38,0,122.74,65.98,142.89,133.67,5.12,17.24,7.9,34.6,7.9,51Z"/>
              <path d="M327.8,560.51c-86.11,0-156.16-68.04-156.16-151.68,0-7.29.53-14.81,1.58-22.35,5.41-39.83,24.09-81.01,51.26-112.96,29.99-35.28,66.69-54.71,103.33-54.71,70.3,0,127.68,69.17,148.02,137.49,5.39,18.15,8.13,35.82,8.13,52.52,0,83.64-70.05,151.68-156.15,151.68ZM327.8,229.51c-72.18,0-133.81,83.49-143.99,158.42-.98,7.07-1.48,14.1-1.48,20.89,0,77.74,65.25,140.98,145.46,140.98s145.45-63.24,145.45-140.98c0-15.67-2.58-32.32-7.68-49.47-19.21-64.52-72.7-129.84-137.77-129.84Z"/>
            </g>
            <path d="M470.7,357.83c-13.11,77.09-75.25,135.49-149.92,135.49-64.84,0-120.22-44.03-142.27-106.1,10.39-76.54,73.27-163.05,149.29-163.05,66.38,0,122.74,65.98,142.89,133.67Z"/>
          </g>
          <g>
            <g>
              <path class="cls-2" d="M863.79,408.83c0,80.82-67.52,146.33-150.8,146.33s-150.81-65.51-150.81-146.33c0-7.06.51-14.28,1.52-21.61,10.39-76.54,73.27-163.05,149.29-163.05,66.38,0,122.74,65.98,142.89,133.67,5.12,17.24,7.9,34.6,7.9,51Z"/>
              <path d="M712.99,560.51c-86.11,0-156.16-68.04-156.16-151.68,0-7.29.53-14.81,1.58-22.35,5.41-39.83,24.09-81.01,51.26-112.96,29.99-35.28,66.69-54.71,103.33-54.71,70.3,0,127.68,69.17,148.02,137.49,5.39,18.15,8.13,35.82,8.13,52.52,0,83.64-70.05,151.68-156.15,151.68ZM712.99,229.51c-72.18,0-133.81,83.49-143.99,158.42-.98,7.07-1.48,14.1-1.48,20.89,0,77.74,65.25,140.98,145.46,140.98s145.45-63.24,145.45-140.98c0-15.67-2.58-32.32-7.68-49.47-19.21-64.52-72.7-129.84-137.77-129.84Z"/>
            </g>
            <path d="M855.89,357.83c-13.11,77.09-75.25,135.49-149.92,135.49-64.84,0-120.22-44.03-142.27-106.1,10.39-76.54,73.27-163.05,149.29-163.05,66.38,0,122.74,65.98,142.89,133.67Z"/>
          </g>
          <g>
            <path class="cls-4" d="M589.76,660.5c-.72,19.74-5.42,39.71-16.57,56.44-3.52,4.98-7.44,9.3-11.68,13-.63.55-1.26,1.08-1.9,1.61-26.82,21.88-65.08,20.21-92.69.79-.58-.39-1.14-.8-1.7-1.22-5.44-4.04-10.45-8.77-14.82-14.18-13.43-17.11-16.12-36.7-14.34-56.44.86-9.42,2.73-18.89,4.94-28.11.72-3.14,1.5-6.25,2.27-9.34h144.97c.32,2.54.56,5.1.74,7.65.29,4.16.43,8.31.45,12.49.41,5.68.53,11.49.32,17.31Z"/>
            <path d="M513.89,752.76c-17.22,0-34.82-5.34-50.05-16.05-.55-.37-1.17-.83-1.79-1.29-5.93-4.4-11.24-9.48-15.8-15.12-12.65-16.12-17.71-35.82-15.51-60.29.77-8.5,2.38-17.67,5.06-28.88.7-3.04,1.45-6.05,2.29-9.39l1.02-4.05h153.86l.59,4.68c.32,2.56.58,5.23.76,7.96.28,3.97.43,8.11.47,12.64.43,5.93.53,11.89.32,17.71-.85,23.18-6.72,43.1-17.47,59.21l-.08.12c-3.68,5.2-7.89,9.89-12.53,13.94-.68.59-1.36,1.17-2.05,1.73-13.93,11.36-31.31,17.06-49.09,17.06ZM447.46,628.4c-.43,1.76-.85,3.47-1.24,5.18-2.57,10.74-4.1,19.43-4.82,27.4-1.97,21.92,2.23,38.65,13.22,52.65,3.95,4.87,8.6,9.33,13.8,13.19.49.36.99.73,1.5,1.08,27.13,19.09,62.59,18.86,86.31-.5.6-.49,1.18-.98,1.76-1.49,3.98-3.47,7.6-7.51,10.78-12,9.6-14.43,14.86-32.47,15.63-53.61h0c.2-5.49.1-11.12-.31-16.72v-.36c-.04-4.37-.19-8.34-.46-12.15-.06-.9-.13-1.8-.21-2.68h-135.98Z"/>
          </g>
          <g>
            <path class="cls-3" d="M559.61,731.54c-26.82,21.88-65.08,20.21-92.69.79,5.58-21.36,24.26-37.06,46.45-37.06s40.4,15.31,46.24,36.27Z"/>
            <path d="M513.89,752.76c-17.22,0-34.82-5.34-50.04-16.05-1.83-1.28-2.66-3.57-2.1-5.73,6.31-24.17,27.54-41.06,51.63-41.06s44.81,16.53,51.39,40.19c.57,2.05-.13,4.24-1.77,5.58-13.93,11.37-31.32,17.07-49.1,17.07ZM473.2,730.09c25.51,16.16,57.49,15.96,80.18-.49-6.26-17.23-22.25-28.97-40-28.97s-34.05,11.94-40.18,29.47Z"/>
          </g>
          <g>
            <path class="cls-2" d="M589.76,667.18h-153.69c.86-11.1,2.73-22.26,4.94-33.13.72-3.7,1.5-7.36,2.27-11h144.97c.32,2.99.56,6.01.74,9.02.29,4.9.43,9.79.45,14.72.41,6.7.53,13.54.32,20.4Z"/>
            <path d="M589.76,672.53h-153.69c-1.49,0-2.91-.62-3.93-1.71-1.01-1.09-1.52-2.56-1.41-4.05.77-9.93,2.36-20.66,5.03-33.79.7-3.6,1.45-7.14,2.28-11.05.53-2.47,2.71-4.23,5.23-4.23h144.97c2.73,0,5.03,2.06,5.32,4.78.32,2.98.57,6.1.76,9.28.28,4.66.43,9.53.46,14.85.42,6.95.53,13.92.32,20.74-.09,2.89-2.46,5.18-5.35,5.18ZM441.94,661.83h142.57c.03-4.87-.11-9.8-.41-14.72,0-.1,0-.2-.01-.3-.03-5.19-.17-9.91-.45-14.43-.08-1.35-.17-2.68-.27-3.99h-135.76c-.48,2.27-.93,4.46-1.36,6.68-2.07,10.2-3.47,18.85-4.32,26.76Z"/>
          </g>
        </g>
        <g>
          <ellipse class="cls-2" cx="665.8" cy="319.07" rx="36.72" ry="30.33" transform="translate(-11.46 613.02) rotate(-49.07)"/>
          <ellipse class="cls-2" cx="766.22" cy="426.64" rx="19.42" ry="16.04" transform="translate(-106.84 509.64) rotate(-34.54)"/>
        </g>
        <g>
          <ellipse class="cls-2" cx="268.58" cy="319.07" rx="36.72" ry="30.33" transform="translate(-148.44 312.93) rotate(-49.07)"/>
          <ellipse class="cls-2" cx="369" cy="426.64" rx="19.42" ry="16.04" transform="translate(-176.86 284.42) rotate(-34.54)"/>
        </g>
      </g>
    </g>
  </g>
</svg>