<?xml version="1.0" encoding="UTF-8"?>
<svg xmlns="http://www.w3.org/2000/svg" version="1.1" viewBox="0 0 1000 1000">
  <defs>
    <style>
      .cls-1 {
        fill: #fff2dc;
      }

      .cls-2 {
        fill: #151219;
      }

      .cls-3 {
        fill: #fa3310;
      }

      .cls-4 {
        fill: #fe81aa;
      }
    </style>
  </defs>
  <!-- Generator: Adobe Illustrator 28.6.0, SVG Export Plug-In . SVG Version: 1.2.0 Build 709)  -->
  <g>
    <g id="Layer_1">
      <g>
        <g>
          <path class="cls-3" d="M784.77,180H178.51c-85.74,0-155.89,70.15-155.89,155.89v202.32c0,85.74,70.15,155.89,155.89,155.89h84.05c12.82,0,23.22,10.39,23.22,23.22v117.07c0,14.14,16.89,21.46,27.21,11.79l155.64-145.81c4.3-4.03,9.98-6.27,15.87-6.27h300.29c85.74,0,155.9-70.15,155.9-155.9v-202.32c0-85.74-70.15-155.89-155.89-155.89Z"/>
          <path class="cls-2" d="M302.04,856.42c-2.96,0-5.96-.61-8.85-1.86-8.16-3.54-13.23-11.26-13.23-20.16v-117.07c0-9.59-7.81-17.4-17.4-17.4h-84.05c-89.17,0-161.71-72.54-161.71-161.71v-202.32c0-89.17,72.54-161.71,161.71-161.71h606.26c89.17,0,161.71,72.54,161.71,161.71v202.32c0,89.17-72.54,161.71-161.71,161.71h-300.29c-4.44,0-8.66,1.67-11.89,4.7l-155.64,145.81c-4.2,3.94-9.49,5.99-14.91,5.99ZM178.51,185.81c-82.76,0-150.08,67.32-150.08,150.08v202.32c0,82.76,67.32,150.08,150.08,150.08h84.05c16.01,0,29.03,13.02,29.03,29.03v117.07c0,4.25,2.33,7.8,6.23,9.49,3.91,1.7,8.08.97,11.18-1.94l155.64-145.81c5.4-5.06,12.44-7.84,19.84-7.84h300.29c82.76,0,150.08-67.32,150.08-150.08v-202.32c0-82.76-67.32-150.08-150.08-150.08H178.51Z"/>
        </g>
        <g>
          <path class="cls-4" d="M821.49,149.4H215.23c-85.74,0-155.89,70.15-155.89,155.89v202.32c0,85.74,70.15,155.89,155.89,155.89h84.05c12.82,0,23.22,10.39,23.22,23.22v117.07c0,14.14,16.89,21.46,27.21,11.79l155.64-145.81c4.3-4.03,9.98-6.27,15.87-6.27h300.29c85.74,0,155.9-70.15,155.9-155.9v-202.32c0-85.74-70.15-155.89-155.89-155.89Z"/>
          <path class="cls-2" d="M338.76,825.82c-2.96,0-5.96-.61-8.85-1.86-8.16-3.54-13.23-11.26-13.23-20.16v-117.07c0-9.59-7.81-17.4-17.4-17.4h-84.05c-89.17,0-161.71-72.54-161.71-161.71v-202.32c0-89.17,72.54-161.71,161.71-161.71h606.26c89.17,0,161.71,72.54,161.71,161.71v202.32c0,89.17-72.54,161.71-161.71,161.71h-300.29c-4.44,0-8.66,1.67-11.9,4.7l-155.63,145.8c-4.2,3.94-9.49,5.99-14.91,5.99ZM215.23,155.21c-82.76,0-150.08,67.32-150.08,150.08v202.32c0,82.76,67.32,150.08,150.08,150.08h84.05c16.01,0,29.03,13.02,29.03,29.03v117.07c0,4.25,2.33,7.8,6.23,9.49,3.9,1.7,8.09.97,11.18-1.94l155.64-145.81c5.41-5.06,12.46-7.84,19.85-7.84h300.29c82.76,0,150.08-67.32,150.08-150.08v-202.32c0-82.76-67.32-150.08-150.08-150.08H215.23Z"/>
        </g>
        <g>
          <g>
            <circle class="cls-1" cx="720.46" cy="388.07" r="115.95"/>
            <path d="M720.46,510.47c-67.49,0-122.39-54.9-122.39-122.39s54.9-122.39,122.39-122.39,122.39,54.9,122.39,122.39-54.9,122.39-122.39,122.39ZM720.46,278.57c-60.38,0-109.51,49.13-109.51,109.51s49.13,109.51,109.51,109.51,109.51-49.13,109.51-109.51-49.13-109.51-109.51-109.51Z"/>
          </g>
          <circle cx="720.46" cy="385.42" r="69.4"/>
        </g>
        <g>
          <g>
            <circle class="cls-1" cx="316.52" cy="388.07" r="115.95"/>
            <path d="M316.52,510.47c-67.49,0-122.39-54.9-122.39-122.39s54.9-122.39,122.39-122.39,122.39,54.9,122.39,122.39-54.9,122.39-122.39,122.39ZM316.52,278.57c-60.38,0-109.51,49.13-109.51,109.51s49.13,109.51,109.51,109.51,109.51-49.13,109.51-109.51-49.13-109.51-109.51-109.51Z"/>
          </g>
          <circle cx="316.52" cy="385.42" r="69.4"/>
        </g>
        <path d="M518.27,566.58c-27.55,0-49.97-22.42-49.97-49.97,0-3.25,2.63-5.88,5.88-5.88s5.88,2.63,5.88,5.88c0,21.07,17.14,38.21,38.21,38.21s38.21-17.14,38.21-38.21c0-3.25,2.63-5.88,5.88-5.88s5.88,2.63,5.88,5.88c0,27.55-22.42,49.97-49.97,49.97Z"/>
      </g>
    </g>
  </g>
</svg>