<?xml version="1.0" encoding="UTF-8"?>
<svg xmlns="http://www.w3.org/2000/svg" version="1.1" viewBox="0 0 1000 1000">
  <defs>
    <style>
      .cls-1 {
        fill: #fcd200;
      }

      .cls-2 {
        fill: #fff2dc;
      }

      .cls-3 {
        fill: #fa3310;
      }
    </style>
  </defs>
  <!-- Generator: Adobe Illustrator 28.6.0, SVG Export Plug-In . SVG Version: 1.2.0 Build 709)  -->
  <g>
    <g id="Layer_1">
      <g>
        <g>
          <path class="cls-3" d="M875.56,380.35l-198.58-4.26c-24.32-.52-45.88-15.77-54.48-38.52l-70.24-185.8c-19.69-52.09-93.71-51.14-112.05,1.45l-65.42,187.55c-8.01,22.97-29.17,38.76-53.47,39.91l-198.41,9.39c-55.63,2.63-77.59,73.32-33.25,107.01l158.15,120.17c19.37,14.72,27.85,39.72,21.44,63.19l-52.38,191.6c-14.69,53.72,45.76,96.45,91.5,64.69l163.16-113.28c19.98-13.87,46.39-14.21,66.72-.86l166.03,109.03c46.55,30.57,105.87-13.71,89.8-67.03l-57.31-190.18c-7.02-23.29.82-48.51,19.8-63.72l155-124.22c43.46-34.83,19.67-104.93-36-106.12Z"/>
          <path d="M274.35,952.23c-12.94,0-25.87-3.98-37.13-11.94-22.36-15.81-32.14-43.08-24.91-69.49l52.38-191.6c5.94-21.72-1.81-44.56-19.74-58.19l-158.15-120.17c-21.8-16.56-30.64-44.16-22.51-70.31,8.12-26.15,31.04-43.88,58.39-45.17l198.41-9.39c22.5-1.06,41.83-15.49,49.24-36.76l65.42-187.55c9.02-25.85,32.53-42.78,59.91-43.14,27.37-.32,51.32,15.97,61,41.58l70.24,185.8c7.96,21.06,27.66,34.99,50.18,35.47l198.58,4.26c27.37.59,50.74,17.72,59.54,43.65,8.8,25.93.67,53.74-20.69,70.87l-155,124.22c-17.57,14.08-24.73,37.12-18.23,58.68l57.31,190.18c7.9,26.21-1.17,53.74-23.11,70.11-21.94,16.38-50.91,17.25-73.79,2.22l-166.03-109.03c-18.82-12.36-42.94-12.05-61.44.79l-163.16,113.28c-11.17,7.75-23.93,11.62-36.69,11.62ZM496.48,117.95c-.24,0-.47,0-.71,0-18.59.24-41.79,10.04-51.13,36.81l-65.42,187.55c-8.69,24.92-31.34,41.82-57.7,43.07l-198.41,9.39c-28.33,1.34-44.32,20.79-49.83,38.55-5.52,17.76-3.37,42.85,19.21,60l158.15,120.17c21.01,15.97,30.09,42.73,23.13,68.18l-52.38,191.6c-7.48,27.36,6.08,48.57,21.26,59.31,15.18,10.73,39.71,16.44,63,.27l163.16-113.28c21.68-15.05,49.94-15.41,72-.93l166.03,109.03c23.71,15.57,48.07,9.23,62.97-1.9,14.9-11.12,27.91-32.68,19.73-59.84l-57.31-190.18c-7.61-25.27.77-52.26,21.36-68.76l155-124.22c22.13-17.74,23.63-42.87,17.66-60.48-5.97-17.61-22.46-36.64-50.81-37.25l-198.58-4.26c-26.38-.57-49.46-16.88-58.79-41.57l-70.24-185.8c-9.9-26.19-32.88-35.49-51.35-35.49Z"/>
        </g>
        <g>
          <path class="cls-1" d="M875.56,319.6l-198.58-4.26c-24.32-.52-45.88-15.77-54.48-38.52l-70.24-185.8c-19.69-52.09-93.71-51.14-112.05,1.45l-65.42,187.55c-8.01,22.97-29.17,38.76-53.47,39.91l-198.41,9.39c-55.63,2.63-77.59,73.32-33.25,107.01l158.15,120.17c19.37,14.72,27.85,39.72,21.44,63.19l-52.38,191.6c-14.69,53.72,45.76,96.45,91.5,64.69l163.16-113.28c19.98-13.87,46.39-14.21,66.72-.86l166.03,109.03c46.55,30.57,105.87-13.71,89.8-67.03l-57.31-190.18c-7.02-23.29.82-48.51,19.8-63.72l155-124.22c43.46-34.83,19.67-104.93-36-106.12Z"/>
          <path d="M274.35,891.48c-12.94,0-25.87-3.98-37.13-11.94-22.36-15.81-32.14-43.08-24.91-69.49l52.38-191.6c5.94-21.72-1.81-44.57-19.74-58.19l-158.15-120.17c-21.8-16.56-30.64-44.16-22.51-70.31,8.12-26.15,31.04-43.88,58.39-45.17l198.41-9.39c22.5-1.06,41.83-15.49,49.24-36.76l65.42-187.55c9.02-25.85,32.53-42.78,59.91-43.14,27.4-.33,51.32,15.97,61,41.58l70.24,185.8c7.96,21.07,27.66,34.99,50.18,35.47l198.58,4.26c27.37.59,50.74,17.72,59.54,43.65,8.8,25.93.67,53.74-20.69,70.86l-155,124.22c-17.57,14.09-24.73,37.12-18.23,58.68l57.31,190.18c7.9,26.21-1.17,53.74-23.11,70.11-21.94,16.38-50.91,17.25-73.79,2.22l-166.03-109.03c-18.83-12.36-42.95-12.05-61.44.79l-163.16,113.28c-11.17,7.75-23.93,11.62-36.69,11.62ZM496.48,57.2c-.24,0-.47,0-.71,0-18.59.24-41.79,10.04-51.13,36.81l-65.42,187.55c-8.69,24.92-31.34,41.82-57.7,43.07l-198.41,9.39c-28.33,1.34-44.32,20.79-49.83,38.55-5.52,17.76-3.37,42.85,19.21,60l158.15,120.17c21.01,15.97,30.09,42.73,23.13,68.18l-52.38,191.6c-7.48,27.36,6.08,48.57,21.26,59.31,15.18,10.73,39.71,16.44,63,.27l163.16-113.28c21.68-15.05,49.94-15.41,72-.93l166.03,109.03c23.71,15.57,48.07,9.23,62.97-1.9,14.9-11.12,27.91-32.68,19.73-59.84l-57.31-190.18c-7.61-25.27.77-52.26,21.36-68.76l155-124.22c22.13-17.74,23.63-42.87,17.66-60.48-5.97-17.61-22.46-36.64-50.81-37.25l-198.58-4.26c-26.38-.57-49.46-16.88-58.79-41.57l-70.24-185.8c-9.9-26.19-32.88-35.49-51.35-35.49Z"/>
        </g>
        <g>
          <g>
            <path class="cls-2" d="M459.87,347.57c3.02,124.87-35.6,210.5-92.58,212.85-60.28,2.49-94.6-77.01-92.58-212.85,1.74-116.66,28.86-212.85,92.58-212.85,58.64,0,89.38,80.3,92.58,212.85Z"/>
            <path d="M364.53,565.19c-17.5,0-33.09-6.54-46.36-19.47-16.34-15.91-28.78-41.15-36.97-75.02-8.15-33.69-11.92-75.15-11.21-123.21,2.06-138.22,37.52-217.5,97.3-217.5,30.75,0,54.79,20.05,71.42,59.6,15.53,36.91,24.23,90.02,25.87,157.85,1.49,61.61-6.88,115-24.19,154.38-17.4,39.6-43.3,62.07-72.91,63.3-.99.04-1.97.06-2.95.06ZM367.29,139.43c-27.89,0-49.8,20.07-65.14,59.67-13.96,36.04-21.82,87.4-22.73,148.54-1.39,93.56,14.71,161.51,45.33,191.33,12.09,11.77,26.33,17.41,42.34,16.74,54.75-2.26,90.97-87.81,88.06-208.03-3.24-134.29-34.45-208.25-87.87-208.25Z"/>
          </g>
          <g>
            <path class="cls-2" d="M725.22,347.57c3.02,124.87-35.6,210.5-92.58,212.85-60.28,2.49-94.6-77.01-92.58-212.85,1.74-116.66,28.86-212.85,92.58-212.85,58.64,0,89.38,80.3,92.58,212.85Z"/>
            <path d="M629.88,565.19c-17.5,0-33.09-6.54-46.36-19.47-16.34-15.91-28.78-41.15-36.97-75.02-8.15-33.69-11.92-75.15-11.21-123.21,2.06-138.22,37.52-217.5,97.3-217.5,30.75,0,54.79,20.05,71.42,59.6,15.53,36.91,24.23,90.02,25.87,157.85,1.49,61.61-6.88,115-24.19,154.38-17.4,39.6-43.3,62.07-72.91,63.3-.99.04-1.97.06-2.95.06ZM632.63,139.43c-27.89,0-49.8,20.07-65.14,59.67-13.96,36.04-21.82,87.41-22.73,148.54-1.39,93.56,14.71,161.51,45.33,191.33,12.09,11.77,26.35,17.41,42.34,16.74,54.75-2.26,90.97-87.81,88.06-208.03-3.24-134.29-34.45-208.25-87.87-208.25Z"/>
          </g>
          <path d="M633.46,522.24c-37,1.95-58.07-60.44-56.83-167.03.29-25.73,1.83-50.2,4.75-72.07,13.99,3.38,27.58-1.07,32.67-11.66,6.14-12.76-2.37-29.58-19-37.59-.92-.45-1.84-.85-2.77-1.21,9.17-27.57,22.67-44.5,41.18-44.5,35.99,0,54.86,63.01,56.83,167.03,1.85,97.98-21.84,165.17-56.83,167.03Z"/>
          <path d="M367.37,522.24c-37,1.95-58.07-60.44-56.83-167.03.29-25.73,1.83-50.2,4.75-72.07,13.99,3.38,27.58-1.07,32.67-11.66,6.14-12.76-2.37-29.58-19-37.59-.92-.45-1.84-.85-2.77-1.21,9.17-27.57,22.67-44.5,41.18-44.5,35.99,0,54.86,63.01,56.83,167.03,1.85,97.98-21.84,165.17-56.83,167.03Z"/>
        </g>
        <path d="M500.61,645.33c-23.12,0-44.65-16.01-59.04-43.92-1.19-2.31-.29-5.16,2.03-6.35,2.31-1.19,5.16-.29,6.35,2.03,12.72,24.66,31.19,38.81,50.66,38.81s37.94-14.15,50.66-38.81c1.19-2.32,4.04-3.22,6.35-2.03,2.31,1.19,3.22,4.04,2.03,6.35-14.4,27.91-35.92,43.92-59.04,43.92Z"/>
      </g>
    </g>
  </g>
</svg>